<svg width="42" height="42" viewBox="0 0 116 137" fill="none" xmlns="http://www.w3.org/2000/svg">
<path d="M114.721 94.1619L111.02 80.3439L115.609 75.7519L115.83 75.6939L105.188 35.9749L99.5353 37.4889L98.0213 31.8379L92.3713 33.3519L90.8553 27.7009L79.4933 30.7289L78.0393 25.0779L61.0863 29.6209L59.5723 23.9699L48.2703 26.9979L42.2133 4.39286L36.5633 5.90786L35.0473 0.255859L23.5843 3.32786L19.4473 10.4939L19.4613 10.5409L11.1033 18.8369L21.6913 58.3469L8.95728 61.7599L0.613281 70.1039L2.17029 75.9159L5.19928 87.2179L10.8503 85.7039L12.3633 91.3549L18.0163 89.8409L21.0433 101.143L26.6953 99.6289L29.7233 110.931L35.3753 109.417L38.4023 120.719L44.0553 119.205L47.0823 130.507L48.5983 136.158L99.4573 122.531L105.268 120.973L113.613 112.629L109.91 98.8109L114.502 94.2199L114.721 94.1619Z" fill="black"/>
<path d="M46.4139 115.118L40.7639 116.631L37.7339 105.329L32.084 106.843L29.0549 95.5418L23.4039 97.0547L20.3749 85.7528L14.7249 87.2678L13.209 81.6157L7.55893 83.1298L4.33594 71.1007L10.6849 64.7517L25.7789 60.7067L14.8279 19.8428L23.1929 11.5378L32.6879 4.34375L34.2009 9.99575L39.8529 8.48075L45.9099 31.0857L57.213 28.0567L58.7269 33.7087L75.6799 29.1657L77.1929 34.8167L88.4959 31.7887L90.0099 37.4388L95.6619 35.9248L97.1759 41.5757L102.828 40.0628L112.074 74.5687L107.297 79.3457L110.965 93.0368L106.188 97.8137L109.889 111.632L103.541 117.98L50.9569 132.071L46.4139 115.118Z" fill="white"/>
<path d="M99.4766 37.5904L97.9626 31.9394L92.3126 33.4534L90.7966 27.8024L79.4936 30.8314L77.9796 25.1804L61.0266 29.7234L59.5126 24.0724L48.2106 27.0994L42.1536 4.4954L36.5036 6.0094L34.9876 0.358398L23.6846 3.3874L25.2006 9.0384L19.5486 10.5524L33.1776 61.4124L27.5276 62.9264L26.0136 57.2754L9.05859 61.8184L10.5726 67.4694L11.3306 70.2954L13.6026 78.7724L19.2526 77.2574L20.7686 82.9084L26.4186 81.3944L29.4476 92.6964L35.0976 91.1824L38.1266 102.484L43.7766 100.97L46.8036 112.272L52.4556 110.758L55.4826 122.06L56.9986 127.711L107.858 114.083L113.508 112.568L108.967 95.6154L114.617 94.1014L110.074 77.1474L115.726 75.6334L105.126 36.0754L99.4766 37.5904Z" fill="white"/>
<path d="M25.1905 9.04631L19.5391 10.5605L37.7084 78.3725L43.3598 76.8583L25.1905 9.04631Z" fill="black"/>
<path d="M34.9807 0.368L23.6777 3.39648L25.192 9.04797L36.495 6.01948L34.9807 0.368Z" fill="black"/>
<path d="M42.1456 4.47697L36.4941 5.99121L50.121 56.8497L55.7725 55.3355L42.1456 4.47697Z" fill="black"/>
<path d="M59.5012 24.0714L48.1992 27.0996L49.7135 32.7511L61.0154 29.7229L59.5012 24.0714Z" fill="black"/>
<path d="M68.2087 33.8535L62.5566 35.3672L67.0971 52.3215L72.7492 50.8078L68.2087 33.8535Z" fill="black"/>
<path d="M77.9691 25.1836L61.0176 29.7256L62.5316 35.3761L79.4831 30.8342L77.9691 25.1836Z" fill="black"/>
<path d="M86.6515 34.9516L81 36.4658L85.5394 53.4077L91.1908 51.8935L86.6515 34.9516Z" fill="black"/>
<path d="M90.7873 27.8133L79.4844 30.8418L80.9986 36.4933L92.3016 33.4648L90.7873 27.8133Z" fill="black"/>
<path d="M97.9611 31.9493L92.3105 33.4639L93.8251 39.1144L99.4756 37.5998L97.9611 31.9493Z" fill="black"/>
<path d="M105.147 36.0681L99.4941 37.582L110.089 77.1426L115.742 75.6287L105.147 36.0681Z" fill="black"/>
<path d="M110.076 77.128L104.426 78.6426L108.97 95.5961L114.621 94.0815L110.076 77.128Z" fill="black"/>
<path d="M108.964 95.6268L103.312 97.1416L107.856 114.094L113.508 112.579L108.964 95.6268Z" fill="black"/>
<path d="M106.331 108.437L55.4727 122.063L56.9869 127.715L107.845 114.088L106.331 108.437Z" fill="black"/>
<path d="M33.1701 61.3932L27.5195 62.9072L29.0335 68.5577L34.684 67.0438L33.1701 61.3932Z" fill="black"/>
<path d="M26.0033 57.2756L9.04883 61.8184L10.5628 67.4689L27.5173 62.9262L26.0033 57.2756Z" fill="black"/>
<path d="M16.2199 65.9627L10.5684 67.4775L13.5977 78.7795L19.2492 77.2647L16.2199 65.9627Z" fill="black"/>
<path d="M24.8917 75.7543L19.2402 77.2686L20.7545 82.92L26.4059 81.4058L24.8917 75.7543Z" fill="black"/>
<path d="M32.0577 79.891L26.4062 81.4053L29.4345 92.7073L35.0859 91.193L32.0577 79.891Z" fill="black"/>
<path d="M40.7404 89.654L35.0898 91.168L38.1181 102.47L43.7686 100.956L40.7404 89.654Z" fill="black"/>
<path d="M49.421 99.434L43.7695 100.948L46.7977 112.25L52.4492 110.736L49.421 99.434Z" fill="black"/>
<path d="M58.1026 109.221L52.4512 110.735L55.4794 122.037L61.1309 120.523L58.1026 109.221Z" fill="black"/>
</svg>