<svg width="42" height="42" viewBox="0 0 97 107" fill="none" xmlns="http://www.w3.org/2000/svg">
<path d="M92.6256 88.3624L89.5545 76.8984L83.9036 78.4124L80.9316 67.3194L88.0126 65.4214L96.3565 57.0784L94.7996 51.2654L93.2855 45.6144L87.6336 47.1284L86.1206 41.4774L80.4696 42.9914L78.9555 37.3404L73.3036 38.8544L71.7895 33.2034L66.1386 34.7174L64.6235 29.0664L58.9726 30.5814L57.4585 24.9294L51.8075 26.4434L50.2936 20.7934L44.6426 22.3074L43.1276 16.6554L37.4765 18.1694L35.9625 12.5194L30.3115 14.0334L28.7965 8.38142L23.1466 9.89642L21.6316 4.24542L15.9806 5.75942L14.4666 0.107422L8.65455 1.66542L0.310547 10.0094L26.0946 106.24L31.9075 104.682L37.5595 103.168L45.9025 94.8244L45.2286 92.3084L49.8196 87.7184L50.0395 87.6594L49.3655 85.1434L50.4385 84.0694L52.8366 93.0174L58.4876 91.5034L61.5165 102.806L67.1666 101.292L68.6816 106.942L80.1446 103.871L88.4896 95.5274L87.8146 93.0114L92.4056 88.4214L92.6256 88.3624Z" fill="black"/>
<path d="M69.5282 97.2043L63.8772 98.7183L60.8492 87.4153L55.1972 88.9303L52.1672 77.6213L45.6442 84.1463L46.2842 86.5343L41.5072 91.3113L42.1812 93.8273L35.8312 100.175L28.4562 102.152L4.0332 11.0063L10.3822 4.65831L12.1072 4.19531L13.6222 9.84731L19.2732 8.33231L20.7872 13.9833L26.4382 12.4693L27.9522 18.1203L33.6032 16.6063L35.1172 22.2573L40.7692 20.7433L42.2832 26.3943L47.9342 24.8803L49.4482 30.5313L55.0992 29.0173L56.6132 34.6683L62.2652 33.1543L63.7792 38.8053L69.4302 37.2903L70.9442 42.9423L76.5952 41.4283L78.1092 47.0793L83.7602 45.5643L85.2742 51.2153L90.9262 49.7023L92.6352 56.0803L86.2862 62.4293L76.8442 64.9603L81.5442 82.4993L87.1952 80.9853L88.8702 87.2373L84.0932 92.0143L84.7672 94.5293L78.4192 100.878L71.0422 102.855L69.5282 97.2043Z" fill="white"/>
<path d="M87.5748 47.2299L86.0608 41.5789L80.4098 43.0929L78.8958 37.4419L73.2448 38.9569L71.7308 33.3059L66.0798 34.8199L64.5648 29.1689L58.9138 30.6829L57.3998 25.0319L51.7488 26.5459L50.2348 20.8949L44.5838 22.4089L43.0688 16.7579L37.4178 18.2719L35.9038 12.6209L30.2528 14.1349L28.7378 8.48394L23.0878 9.99794L21.5738 4.34694L15.9228 5.86194L14.4088 0.210938L8.75781 1.72494L34.4998 97.7939L40.1508 96.2799L45.8018 94.7649L44.2868 89.1139L49.9378 87.5999L48.4228 81.9489L54.0738 80.4339L52.5598 74.7829L58.2108 73.2689L61.2388 84.5709L66.8898 83.0559L69.9178 94.3589L75.5688 92.8449L77.0828 98.4959L88.3858 95.4679L86.8718 89.8169L92.5228 88.3029L89.4958 76.9999L83.8448 78.5139L80.8168 67.2119L75.1658 68.7269L73.6518 63.0759L96.2568 57.0189L94.7428 51.3679L93.2278 45.7169L87.5748 47.2299Z" fill="white"/>
<path d="M14.4054 0.209395L8.75391 1.72363L34.4936 97.7901L40.1451 96.2759L14.4054 0.209395Z" fill="black"/>
<path d="M21.5753 4.3426L15.9238 5.85742L17.4384 11.5079L23.0899 9.99311L21.5753 4.3426Z" fill="black"/>
<path d="M28.7345 8.48407L23.084 9.99805L24.598 15.6486L30.2485 14.1346L28.7345 8.48407Z" fill="black"/>
<path d="M35.9034 12.619L30.252 14.1338L31.7665 19.7843L37.418 18.2695L35.9034 12.619Z" fill="black"/>
<path d="M43.0655 16.7563L37.4141 18.2705L38.9283 23.922L44.5798 22.4077L43.0655 16.7563Z" fill="black"/>
<path d="M50.2286 20.8942L44.5781 22.4082L46.0921 28.0587L51.7426 26.5447L50.2286 20.8942Z" fill="black"/>
<path d="M57.3927 25.0368L51.7422 26.5508L53.2564 32.2023L58.9069 30.6883L57.3927 25.0368Z" fill="black"/>
<path d="M64.5616 29.1664L58.9102 30.6807L60.4241 36.3312L66.0756 34.8169L64.5616 29.1664Z" fill="black"/>
<path d="M71.7247 33.3044L66.0742 34.8184L67.5885 40.4698L73.239 38.9559L71.7247 33.3044Z" fill="black"/>
<path d="M78.8917 37.4379L73.2402 38.9521L74.7542 44.6027L80.4057 43.0884L78.8917 37.4379Z" fill="black"/>
<path d="M86.0587 41.5811L80.4082 43.0957L81.9228 48.7462L87.5733 47.2317L86.0587 41.5811Z" fill="black"/>
<path d="M93.2218 45.7104L87.5703 47.2246L89.0846 52.8761L94.736 51.3619L93.2218 45.7104Z" fill="black"/>
<path d="M94.7359 51.3658L66.4805 58.9365L67.9947 64.588L96.2502 57.0173L94.7359 51.3658Z" fill="black"/>
<path d="M73.6476 63.0707L67.9961 64.585L69.5103 70.2364L75.1618 68.7222L73.6476 63.0707Z" fill="black"/>
<path d="M56.6925 67.6147L51.041 69.1289L52.555 74.7794L58.2065 73.2652L56.6925 67.6147Z" fill="black"/>
<path d="M63.8644 71.7518L58.2129 73.2666L61.2423 84.5686L66.8938 83.0538L63.8644 71.7518Z" fill="black"/>
<path d="M72.5333 81.5436L66.8828 83.0576L69.911 94.3596L75.5615 92.8456L72.5333 81.5436Z" fill="black"/>
<path d="M86.8664 89.8116L75.5645 92.8398L77.0784 98.4903L88.3804 95.4621L86.8664 89.8116Z" fill="black"/>
<path d="M80.8116 67.2074L75.1602 68.7217L78.1884 80.0237L83.8399 78.5094L80.8116 67.2074Z" fill="black"/>
<path d="M89.5017 77.0127L83.8496 78.5264L86.8767 89.8295L92.5287 88.3159L89.5017 77.0127Z" fill="black"/>
<path d="M52.5626 74.7774L46.9121 76.292L48.4267 81.9425L54.0772 80.4279L52.5626 74.7774Z" fill="black"/>
<path d="M48.4181 81.945L42.7676 83.459L44.2818 89.1105L49.9323 87.5965L48.4181 81.945Z" fill="black"/>
<path d="M44.2882 89.1102L38.6367 90.625L40.1515 96.2765L45.803 94.7617L44.2882 89.1102Z" fill="black"/>
</svg>